<svg width="96" height="15" viewBox="0 0 96 15" fill="none" xmlns="http://www.w3.org/2000/svg">
<path d="M90.1211 14.9574C88.9989 14.9574 88.033 14.7302 87.2234 14.2756C86.4184 13.8163 85.7982 13.1677 85.3626 12.3296C84.927 11.4868 84.7092 10.4901 84.7092 9.33954C84.7092 8.21738 84.927 7.23254 85.3626 6.385C85.7982 5.53746 86.4113 4.87695 87.2021 4.40346C87.9975 3.92998 88.9303 3.69324 90.0004 3.69324C90.7201 3.69324 91.39 3.80924 92.0103 4.04125C92.6353 4.26852 93.1798 4.6118 93.6438 5.07108C94.1126 5.53036 94.4772 6.10801 94.7376 6.80403C94.998 7.49532 95.1282 8.30498 95.1282 9.23301V10.064H85.9166V8.18898H92.2802C92.2802 7.75337 92.1855 7.36748 91.9961 7.03131C91.8067 6.69513 91.5439 6.43235 91.2077 6.24295C90.8763 6.04882 90.4904 5.95176 90.0501 5.95176C89.5908 5.95176 89.1836 6.05829 88.8285 6.27136C88.4781 6.47969 88.2035 6.76142 88.0046 7.11653C87.8058 7.46691 87.704 7.85754 87.6992 8.28841V10.0711C87.6992 10.6108 87.7987 11.0772 87.9975 11.4702C88.2011 11.8632 88.4876 12.1662 88.8569 12.3793C89.2262 12.5924 89.6642 12.6989 90.1708 12.6989C90.507 12.6989 90.8148 12.6516 91.0941 12.5569C91.3735 12.4622 91.6126 12.3201 91.8114 12.1307C92.0103 11.9413 92.1618 11.7093 92.266 11.4347L95.0643 11.6194C94.9222 12.2917 94.631 12.8788 94.1907 13.3807C93.7551 13.8779 93.1916 14.2662 92.5004 14.5455C91.8138 14.8201 91.0207 14.9574 90.1211 14.9574Z" fill="#1A1A1A"/>
<path d="M77.9737 14.7443V3.83521H80.907V5.73861H81.0206C81.2195 5.06153 81.5533 4.55017 82.022 4.20452C82.4908 3.85414 83.0305 3.67896 83.6413 3.67896C83.7929 3.67896 83.9562 3.68842 84.1314 3.70736C84.3066 3.7263 84.4605 3.75235 84.593 3.78549V6.47015C84.451 6.42753 84.2545 6.38966 84.0035 6.35651C83.7526 6.32337 83.523 6.3068 83.3146 6.3068C82.8696 6.3068 82.4718 6.40386 82.1214 6.59799C81.7758 6.78738 81.5012 7.05253 81.2976 7.39344C81.0987 7.73435 80.9993 8.12735 80.9993 8.57242V14.7443H77.9737Z" fill="#1A1A1A"/>
<path d="M71.1371 14.9574C70.0339 14.9574 69.0798 14.7231 68.2749 14.2543C67.4747 13.7808 66.8568 13.1227 66.4212 12.2799C65.9856 11.4323 65.7678 10.4499 65.7678 9.33244C65.7678 8.20555 65.9856 7.2207 66.4212 6.3779C66.8568 5.53036 67.4747 4.87221 68.2749 4.40346C69.0798 3.92998 70.0339 3.69324 71.1371 3.69324C72.2403 3.69324 73.192 3.92998 73.9922 4.40346C74.7971 4.87221 75.4174 5.53036 75.853 6.3779C76.2886 7.2207 76.5064 8.20555 76.5064 9.33244C76.5064 10.4499 76.2886 11.4323 75.853 12.2799C75.4174 13.1227 74.7971 13.7808 73.9922 14.2543C73.192 14.7231 72.2403 14.9574 71.1371 14.9574ZM71.1513 12.6137C71.6532 12.6137 72.0722 12.4716 72.4084 12.1876C72.7446 11.8987 72.9979 11.5057 73.1683 11.0086C73.3435 10.5114 73.4311 9.9456 73.4311 9.31113C73.4311 8.67666 73.3435 8.11085 73.1683 7.61369C72.9979 7.11653 72.7446 6.72354 72.4084 6.43471C72.0722 6.14589 71.6532 6.00148 71.1513 6.00148C70.6447 6.00148 70.2185 6.14589 69.8729 6.43471C69.532 6.72354 69.2739 7.11653 69.0987 7.61369C68.9283 8.11085 68.843 8.67666 68.843 9.31113C68.843 9.9456 68.9283 10.5114 69.0987 11.0086C69.2739 11.5057 69.532 11.8987 69.8729 12.1876C70.2185 12.4716 70.6447 12.6137 71.1513 12.6137Z" fill="#1A1A1A"/>
<path d="M64.8544 3.83519V6.10792H58.2848V3.83519H64.8544ZM59.7763 1.22156H62.8018V11.392C62.8018 11.6714 62.8445 11.8892 62.9297 12.0454C63.0149 12.1969 63.1333 12.3035 63.2848 12.365C63.4411 12.4266 63.621 12.4574 63.8246 12.4574C63.9666 12.4574 64.1087 12.4455 64.2507 12.4218C64.3928 12.3934 64.5017 12.3721 64.5774 12.3579L65.0533 14.6093C64.9018 14.6567 64.6887 14.7111 64.4141 14.7727C64.1394 14.839 63.8056 14.8792 63.4126 14.8934C62.6835 14.9218 62.0443 14.8248 61.495 14.6022C60.9505 14.3797 60.5268 14.0341 60.2237 13.5653C59.9207 13.0966 59.7715 12.5047 59.7763 11.7897V1.22156Z" fill="#1A1A1A"/>
<path d="M54.3938 4.3821C54.337 3.80919 54.0932 3.36411 53.6623 3.04688C53.2314 2.72964 52.6467 2.57102 51.908 2.57102C51.4061 2.57102 50.9824 2.64205 50.6367 2.78409C50.2911 2.9214 50.0259 3.11316 49.8413 3.35938C49.6613 3.60559 49.5714 3.88494 49.5714 4.19744C49.5619 4.45786 49.6164 4.68513 49.7347 4.87926C49.8578 5.07339 50.0259 5.24148 50.239 5.38352C50.4521 5.52083 50.6983 5.64157 50.9776 5.74574C51.257 5.84517 51.5553 5.9304 51.8725 6.00142L53.1793 6.31392C53.8138 6.45597 54.3962 6.64536 54.9265 6.8821C55.4568 7.11885 55.9161 7.41004 56.3043 7.75568C56.6926 8.10133 56.9933 8.50852 57.2063 8.97727C57.4241 9.44602 57.5354 9.98343 57.5401 10.5895C57.5354 11.4796 57.3081 12.2514 56.8583 12.9048C56.4132 13.5535 55.7693 14.0578 54.9265 14.4176C54.0884 14.7727 53.0775 14.9503 51.8938 14.9503C50.7196 14.9503 49.6969 14.7704 48.8256 14.4105C47.9592 14.0507 47.2821 13.518 46.7944 12.8125C46.3114 12.1023 46.0581 11.224 46.0345 10.1776H49.0103C49.0434 10.6652 49.1831 11.0724 49.4293 11.3991C49.6803 11.7211 50.0141 11.965 50.4308 12.1307C50.8522 12.2917 51.328 12.3722 51.8583 12.3722C52.3792 12.3722 52.8313 12.2964 53.2149 12.1449C53.6031 11.9934 53.9038 11.7827 54.1168 11.5128C54.3299 11.2429 54.4364 10.9328 54.4364 10.5824C54.4364 10.2557 54.3394 9.98106 54.1452 9.75852C53.9559 9.53598 53.6765 9.34659 53.3072 9.19034C52.9426 9.03409 52.4952 8.89205 51.9649 8.7642L50.381 8.36648C49.1547 8.06818 48.1864 7.6018 47.4762 6.96733C46.766 6.33286 46.4132 5.47822 46.418 4.40341C46.4132 3.52273 46.6476 2.75332 47.1211 2.09517C47.5993 1.43703 48.2551 0.923296 49.0884 0.553978C49.9218 0.18466 50.8687 0 51.9293 0C53.0089 0 53.9511 0.18466 54.756 0.553978C55.5657 0.923296 56.1954 1.43703 56.6452 2.09517C57.0951 2.75332 57.3271 3.51563 57.3413 4.3821H54.3938Z" fill="#1A1A1A"/>
<path d="M37.4915 8.43749V14.7443H34.4659V0.198853H37.4063V5.75993H37.5341C37.7803 5.11599 38.178 4.61173 38.7273 4.24715C39.2765 3.87783 39.9654 3.69317 40.794 3.69317C41.5516 3.69317 42.2121 3.85889 42.7756 4.19033C43.3438 4.51703 43.7841 4.98815 44.0966 5.60368C44.4138 6.21448 44.5701 6.94601 44.5653 7.79828V14.7443H41.5398V8.33806C41.5445 7.66571 41.3741 7.14251 41.0284 6.76845C40.6875 6.3944 40.2093 6.20738 39.5938 6.20738C39.1818 6.20738 38.8172 6.29497 38.5 6.47016C38.1875 6.64535 37.9413 6.90103 37.7614 7.2372C37.5862 7.56864 37.4962 7.96874 37.4915 8.43749Z" fill="#1A1A1A"/>
<path d="M28.1566 14.9574C27.0392 14.9574 26.078 14.7207 25.2731 14.2472C24.4729 13.769 23.8574 13.1061 23.4265 12.2586C23.0004 11.411 22.7873 10.4357 22.7873 9.33244C22.7873 8.21502 23.0027 7.2349 23.4336 6.3921C23.8692 5.54456 24.4871 4.88405 25.2873 4.41057C26.0875 3.93235 27.0392 3.69324 28.1424 3.69324C29.0941 3.69324 29.9274 3.86606 30.6424 4.2117C31.3574 4.55735 31.9232 5.04267 32.3398 5.66767C32.7565 6.29267 32.9862 7.02657 33.0288 7.86937H30.1737C30.0932 7.32487 29.8801 6.88689 29.5345 6.55545C29.1935 6.21928 28.7461 6.05119 28.1921 6.05119C27.7234 6.05119 27.3138 6.17903 26.9634 6.43471C26.6178 6.68566 26.3479 7.05261 26.1538 7.53557C25.9596 8.01852 25.8626 8.60327 25.8626 9.28983C25.8626 9.98585 25.9573 10.5777 26.1467 11.0654C26.3408 11.5531 26.613 11.9248 26.9634 12.1805C27.3138 12.4361 27.7234 12.564 28.1921 12.564C28.5378 12.564 28.8479 12.493 29.1225 12.3509C29.4019 12.2089 29.6315 12.0029 29.8114 11.733C29.9961 11.4584 30.1168 11.1293 30.1737 10.7458H33.0288C32.9814 11.5791 32.7541 12.313 32.347 12.9475C31.9445 13.5772 31.3881 14.0697 30.6779 14.4248C29.9677 14.7799 29.1273 14.9574 28.1566 14.9574Z" fill="#1A1A1A"/>
<path d="M16.7461 14.9574C15.6239 14.9574 14.658 14.7302 13.8484 14.2756C13.0434 13.8163 12.4232 13.1677 11.9876 12.3296C11.552 11.4868 11.3342 10.4901 11.3342 9.33954C11.3342 8.21738 11.552 7.23254 11.9876 6.385C12.4232 5.53746 13.0363 4.87695 13.8271 4.40346C14.6225 3.92998 15.5553 3.69324 16.6254 3.69324C17.3451 3.69324 18.015 3.80924 18.6353 4.04125C19.2603 4.26852 19.8048 4.6118 20.2688 5.07108C20.7376 5.53036 21.1022 6.10801 21.3626 6.80403C21.623 7.49532 21.7532 8.30498 21.7532 9.23301V10.064H12.5416V8.18898H18.9052C18.9052 7.75337 18.8105 7.36748 18.6211 7.03131C18.4317 6.69513 18.1689 6.43235 17.8327 6.24295C17.5013 6.04882 17.1154 5.95176 16.6751 5.95176C16.2158 5.95176 15.8086 6.05829 15.4535 6.27136C15.1031 6.47969 14.8285 6.76142 14.6296 7.11653C14.4308 7.46691 14.329 7.85754 14.3242 8.28841V10.0711C14.3242 10.6108 14.4237 11.0772 14.6225 11.4702C14.8261 11.8632 15.1126 12.1662 15.4819 12.3793C15.8512 12.5924 16.2892 12.6989 16.7958 12.6989C17.132 12.6989 17.4398 12.6516 17.7191 12.5569C17.9985 12.4622 18.2376 12.3201 18.4364 12.1307C18.6353 11.9413 18.7868 11.7093 18.891 11.4347L21.6893 11.6194C21.5472 12.2917 21.256 12.8788 20.8157 13.3807C20.3801 13.8779 19.8166 14.2662 19.1254 14.5455C18.4388 14.8201 17.6457 14.9574 16.7461 14.9574Z" fill="#1A1A1A"/>
<path d="M0 2.73436V0.198853H11.946V2.73436H7.4929V14.7443H4.45312V2.73436H0Z" fill="#1A1A1A"/>
</svg>
